# xmcd
#
# Track frame offsets:
# 150
# 21217
# 34075
# 53582
#
# Disc length: 922 seconds
#
#
# Revision: 2
# Processed by: cddbd v1.5.1PL2 Copyright (c) Steve Scherf et al.
# Submitted via: FreeRIP 2.944 
#
DISCID=27039804
DTITLE=Tori Amos - Winter
DYEAR=1992
DGENRE=Alt. Rock
TTITLE0=Winter
TTITLE1=The Pool
TTITLE2=Take To The Sky
TTITLE3=Sweet Dreams
EXTD=A7504CD EASTWEST YEAR:1992
EXTT0=
EXTT1=
EXTT2=
EXTT3=
PLAYORDER=
